<svg width="201" height="75" viewBox="0 0 201 75" fill="none" xmlns="http://www.w3.org/2000/svg">
<path fill-rule="evenodd" clip-rule="evenodd" d="M201 34.284V33.1452C200.989 32.9548 200.974 32.7799 200.952 32.6205L200.941 32.535L200.857 32.4806C199.495 31.6333 197.748 31.1397 195.989 31.1008C195.953 30.8598 195.743 29.1497 195.71 28.9087C197.377 28.4151 198.963 27.4668 200.079 26.2541L200.141 26.188L200.126 26.1064C200.049 25.4457 199.8 24.5439 199.587 23.992L199.554 23.8988L199.462 23.8793C197.946 23.4285 196.114 23.4401 194.451 23.8793C194.334 23.6617 193.728 22.0953 193.64 21.8582C195.127 20.906 196.419 19.569 197.208 18.127L197.259 18.0493L197.208 17.9404C196.991 17.3924 196.551 16.5879 196.165 16.0709L196.114 15.9971H196.041C194.455 15.966 192.708 16.4674 191.158 17.3419C191.004 17.1437 190.013 15.7717 189.874 15.5734C191.067 14.2753 192.006 12.6156 192.399 10.9832L192.429 10.8977L192.363 10.8239C192.006 10.3303 191.375 9.63843 190.905 9.27696L190.835 9.19923L190.766 9.2381C189.209 9.63843 187.631 10.6101 186.39 11.8772C186.192 11.7178 184.874 10.6334 184.694 10.4896C185.516 8.95048 186.005 7.14705 186.005 5.49131V5.26588L185.935 5.22313C185.461 4.83057 184.694 4.36805 184.147 4.12319L184.063 4.08432L183.982 4.12708C182.598 4.95106 181.324 6.30363 180.44 7.8622C180.216 7.76504 178.619 7.06154 178.413 6.97215C178.619 6.10152 178.744 5.19592 178.762 4.29421C178.762 3.38083 178.648 2.50243 178.413 1.694L178.388 1.59294L178.318 1.56574C177.775 1.31699 176.927 1.07213 176.303 1.00217L176.226 0.974958L176.174 1.03326C175.025 2.20704 174.122 3.86278 173.63 5.62346C173.396 5.59625 171.755 5.37471 171.501 5.31641C171.501 3.52075 171.024 1.66679 170.195 0.22871L170.147 0.154863L170.07 0.127656C169.787 0.092675 169.431 0.0732422 169.075 0.0732422H169.005C168.646 0.0732422 168.286 0.092675 167.996 0.127656L167.911 0.154863L167.875 0.22871C167.052 1.66679 166.579 3.52075 166.542 5.33196C166.318 5.37471 164.637 5.59625 164.402 5.62346C163.921 3.86278 163.015 2.1915 161.873 1.02549L161.803 0.963298L161.704 0.974958C161.098 1.07213 160.239 1.31699 159.722 1.54242L159.641 1.56574L159.63 1.66679C159.395 2.483 159.289 3.36528 159.289 4.29421C159.274 5.18426 159.406 6.08598 159.615 6.9566C159.395 7.04599 157.795 7.7767 157.582 7.8622C156.679 6.30363 155.39 4.9394 154.021 4.12708L153.926 4.08432L153.867 4.12319C153.313 4.36028 152.531 4.83057 152.068 5.21147L151.991 5.26588V5.51075C151.991 7.11984 152.465 8.93493 153.313 10.4896C153.129 10.6334 151.899 11.6323 151.72 11.78C150.49 10.5246 148.911 9.54903 147.348 9.12538L147.278 9.11372L147.204 9.16036C146.738 9.54903 146.1 10.2059 145.714 10.7112L145.681 10.785L145.699 10.855C146.092 12.4874 147.003 14.1353 148.203 15.4529C148.063 15.6473 147.028 17.1126 146.889 17.2914C145.373 16.4091 143.618 15.8999 142.025 15.9232H141.93L141.874 15.9971C141.529 16.4946 141.089 17.2836 140.843 17.8666L140.806 17.956L140.843 18.0493C141.621 19.5029 142.928 20.8477 144.418 21.7922C144.327 22.0292 143.71 23.5878 143.618 23.8055C141.93 23.3702 140.094 23.3546 138.578 23.8249L138.494 23.8482L138.468 23.9298C138.233 24.4818 137.994 25.3718 137.921 26.0364L137.906 26.1297L137.954 26.188C139.081 27.3812 140.667 28.3335 142.33 28.8349C142.304 29.0681 142.095 30.7977 142.058 31.0425C140.303 31.0697 138.538 31.5633 137.169 32.4106L137.099 32.4495L137.091 32.5506C137.055 32.8732 137.044 33.2541 137.044 33.6388C137.044 34.0353 137.055 34.4278 137.091 34.7271L137.099 34.8243L137.169 34.8709C138.538 35.7299 140.303 36.2041 142.058 36.2274C142.084 36.4761 142.33 38.2524 142.348 38.5011C140.667 39.0258 139.096 39.9703 137.976 41.1674L137.921 41.2451L137.939 41.3462C138.035 41.9875 138.262 42.9048 138.468 43.4489L138.516 43.5227L138.589 43.5461C140.123 44.0008 141.952 43.9853 143.633 43.5461C143.736 43.7676 144.367 45.3339 144.462 45.571C142.987 46.5 141.691 47.8448 140.898 49.3023L140.865 49.38L140.898 49.4655C141.137 50.0446 141.577 50.8608 141.944 51.3739L141.999 51.4283H142.084C143.655 51.4711 145.428 50.9541 146.944 50.0602C147.091 50.2739 148.118 51.6732 148.258 51.8675C147.061 53.1579 146.144 54.8136 145.736 56.4383L145.714 56.5238L145.765 56.6093C146.144 57.1107 146.749 57.752 147.215 58.1484L147.3 58.2067L147.381 58.1795C148.911 57.7675 150.501 56.8192 151.745 55.556C151.932 55.7037 153.294 56.7881 153.474 56.9358C152.656 58.5215 152.178 60.3327 152.178 61.9768V62.1478L152.241 62.21C152.725 62.5948 153.474 63.0457 154.043 63.3138L154.131 63.3372L154.205 63.2944C155.578 62.4899 156.881 61.114 157.78 59.5321C157.993 59.6293 159.45 60.2511 159.667 60.3483C159.45 61.215 159.329 62.1051 159.329 62.9951C159.329 63.9007 159.45 64.8141 159.685 65.6303L159.711 65.7042L159.777 65.7392C160.331 65.9801 161.153 66.2328 161.777 66.3299L161.873 66.3455L161.932 66.2833C163.073 65.0978 163.98 63.4382 164.442 61.7086C164.674 61.7242 166.362 61.9768 166.601 62.0001C166.638 63.8269 167.118 65.6809 167.919 67.115L167.974 67.1928L168.047 67.2044C168.653 67.2938 169.545 67.2938 170.099 67.2044L170.195 67.1928L170.239 67.115C171.068 65.6809 171.542 63.8269 171.571 62.0001C171.799 61.9535 173.396 61.7242 173.605 61.7086C174.078 63.4499 174.978 65.1173 176.149 66.2872L176.2 66.3571L176.295 66.3455C176.901 66.2328 177.775 66.0035 178.292 65.778L178.373 65.7314L178.388 65.6498C178.597 64.8336 178.744 63.9279 178.744 63.0223C178.722 62.1245 178.597 61.215 178.388 60.3483C178.597 60.2511 180.142 59.5554 180.355 59.4582C181.247 61.0129 182.554 62.3733 183.916 63.205L184.008 63.2361L184.063 63.2128C184.621 62.9757 185.399 62.5015 185.865 62.1051L185.961 62.0507V61.8252C185.961 60.2006 185.465 58.4011 184.654 56.8386C184.841 56.6909 186.111 55.6493 186.295 55.5016C187.539 56.7648 189.14 57.7248 190.652 58.1484L190.766 58.1717L190.821 58.1251C191.291 57.7248 191.937 57.064 192.285 56.5626L192.333 56.5043L192.307 56.4188C191.937 54.7864 191.019 53.1268 189.811 51.8209C189.951 51.6304 190.975 50.2079 191.114 50.0174C192.645 50.9114 194.403 51.405 195.975 51.3855H196.074L196.114 51.3078C196.499 50.8142 196.929 49.9863 197.16 49.4189L197.186 49.3334L197.146 49.2517C196.415 47.8175 195.112 46.4766 193.64 45.5011C193.702 45.2718 194.323 43.721 194.403 43.4994C196.085 43.9386 197.898 43.9542 199.44 43.4878L199.521 43.4761L199.546 43.3828C199.792 42.8115 200.016 41.9292 200.104 41.2684V41.1946L200.056 41.1208C198.948 39.912 197.355 38.9714 195.71 38.4739C195.743 38.2368 195.934 36.5655 195.975 36.3284C197.74 36.2779 199.495 35.796 200.857 34.9448L200.941 34.8981L200.952 34.8126C200.974 34.6533 200.989 34.4745 201 34.284ZM185.821 47.9186L186.295 48.7076L186.732 49.5044L187.315 48.7076L187.469 48.5094L185.821 47.9186ZM162.317 55.2256C162.295 55.1051 162.247 55.0118 162.112 54.9458L161.098 54.5532L160.871 55.2256L160.79 55.4705L160.783 55.486L161.704 55.8475C161.957 55.9641 162.2 55.727 162.288 55.4705C162.317 55.3966 162.343 55.3111 162.317 55.2256ZM170.217 58.0435L169.905 57.235L169.589 56.3605L169.314 57.235L169.046 58.0979L170.217 58.0435ZM181.159 54.596C181.159 54.3433 181.097 54.114 180.983 53.8964C180.649 53.2434 179.856 53.0335 179.239 53.4066C178.806 53.6515 178.582 54.114 178.582 54.596C178.597 54.8136 178.648 55.0585 178.77 55.2645C178.806 55.3306 178.847 55.3966 178.909 55.4705C179.294 55.9563 179.981 56.069 180.502 55.7464C180.649 55.6726 180.763 55.5754 180.855 55.4705C181.049 55.2256 181.159 54.8952 181.159 54.596ZM189.8 46.3328L186.86 44.6343L186.482 45.3456L190.013 47.4133L191.375 44.852L190.766 44.5138L189.8 46.3328ZM150.938 44.2107L147.476 46.3328C147.601 46.5893 147.733 46.8886 147.887 47.1335L151.352 45.0036C151.184 44.6849 151.088 44.5138 150.938 44.2107ZM153.158 47.5999L151.283 49.3023L152.241 46.3872C152.068 46.1346 151.991 45.9636 151.815 45.7343L148.456 48.1285C148.603 48.3656 148.79 48.5832 148.948 48.8281L150.967 47.3589L150.02 50.2973C150.185 50.4916 150.35 50.787 150.582 50.9852L153.691 48.1868C153.518 47.9925 153.313 47.8175 153.158 47.5999ZM155.214 50.822L153.081 53.4805L152.417 52.878L154.619 50.2973C154.271 49.9552 154.006 49.6482 153.665 49.3334L154.157 48.8164C154.998 49.6482 155.735 50.2973 156.664 51.0785L156.238 51.6498C155.901 51.3739 155.552 51.1057 155.214 50.822ZM157.718 52.8159C158.265 53.1268 158.797 53.4533 159.395 53.7487L159.755 53.1268C158.925 52.6798 158.151 52.1668 157.457 51.6576L155.174 55.1751C156.04 55.7775 156.829 56.2789 157.718 56.8192L158.085 56.1973L156.249 55.0585L156.87 54.1412L158.085 54.9108L158.441 54.3122C158.052 54.0868 157.641 53.8264 157.215 53.5504L157.718 52.8159ZM163.073 55.2256V55.4549C163.015 56.0185 162.647 56.5937 162.056 56.6637L162.196 58.6343C161.921 58.5682 161.609 58.4749 161.319 58.3428L161.286 56.4888L160.493 56.1312L159.85 57.7675C159.59 57.6781 159.329 57.5926 159.076 57.4605L159.891 55.4705L159.99 55.2256L160.651 53.5815L162.457 54.3122C162.86 54.4638 163.044 54.8408 163.073 55.2256ZM166.538 55.2645L166.249 57.8375L165.07 55.0157C164.795 54.9613 164.622 54.8875 164.343 54.8408L163.422 58.9996C163.708 59.0812 163.98 59.1123 164.274 59.1667L164.769 56.6093L165.962 59.4582C166.234 59.501 166.538 59.5904 166.854 59.5787L167.295 55.2839C167.063 55.2723 166.788 55.3111 166.538 55.2645ZM170.745 57.235L171.619 59.4582C171.333 59.4699 171.068 59.501 170.811 59.5321L170.543 58.813L168.8 58.8636L168.598 59.6137C168.319 59.5904 168.058 59.5787 167.783 59.5787L168.535 57.235L169.071 55.4549L169.097 55.3966L169.985 55.3578L170.033 55.4705L170.745 57.235ZM174.596 54.6271C173.421 54.8952 172.522 55.1207 171.358 55.3111L171.465 56.0185C171.894 55.9485 172.287 55.8941 172.742 55.8319L173.329 59.2522L174.192 59.0812L173.491 55.6726C173.935 55.556 174.346 55.4394 174.787 55.3306L174.596 54.6271ZM175.55 54.2695L176.883 58.2689C177.143 58.1717 177.422 58.0901 177.683 57.9696L176.391 53.9896C176.035 54.114 175.873 54.1684 175.55 54.2695ZM181.611 53.5427C181.783 53.8575 181.868 54.2228 181.879 54.596C181.879 54.8875 181.82 55.1829 181.706 55.4549C181.519 55.8475 181.244 56.1973 180.855 56.4305C179.915 57.0096 178.7 56.6637 178.127 55.6493C178.109 55.591 178.083 55.5249 178.046 55.4549C177.929 55.1829 177.874 54.8875 177.848 54.596C177.874 53.8458 178.223 53.1579 178.861 52.7692C179.816 52.1979 181.049 52.5399 181.611 53.5427ZM183.09 49.5666L184.757 51.4555L181.959 50.5888C181.728 50.7753 181.574 50.8375 181.365 51.028L183.802 54.4638C184.008 54.2928 184.221 54.0868 184.419 53.9119L182.94 51.8481L185.766 52.7381C185.961 52.5632 186.236 52.365 186.427 52.1124L183.608 48.9836C183.461 49.1546 183.285 49.38 183.09 49.5666ZM185.366 46.9586L189.371 48.3384C189.275 48.4627 189.202 48.5832 189.118 48.7076C189.048 48.8048 188.963 48.8981 188.908 49.0224L188.207 48.7581L187.113 50.1923L187.513 50.8492C187.352 51.0435 187.165 51.2534 186.959 51.4711L185.373 48.7076L184.786 47.6893L185.366 46.9586ZM170.393 10.4896C170.833 10.5129 171.237 10.5635 171.648 10.6218L171.432 9.74337L171.16 8.83388L170.756 9.74337L170.393 10.4896ZM161.385 10.8822C161.44 11.6323 162.071 12.1764 162.758 12.1143C163.437 12.0404 163.943 11.473 163.943 10.7578C163.965 10.7228 163.943 10.6801 163.943 10.6334C163.885 9.88329 163.268 9.3547 162.552 9.42466C161.873 9.47519 161.359 10.0426 161.385 10.7578V10.8822ZM175.124 10.4896L176.024 10.7967C176.27 10.8705 176.596 10.4624 176.596 10.1087C176.596 9.94159 176.541 9.7939 176.325 9.74337C175.994 9.60733 175.763 9.54903 175.403 9.45187L175.216 10.1087L175.124 10.4896ZM157.075 11.8927L157.189 12.0909L157.596 12.8333L158.441 12.3669C158.521 12.3241 158.566 12.2192 158.58 12.0909C158.595 11.6906 158.32 11.1465 157.919 11.3991C157.607 11.574 157.417 11.6906 157.075 11.8927ZM160.651 10.956V10.7578C160.632 9.66952 161.425 8.77169 162.471 8.68618C163.576 8.57347 164.556 9.42466 164.648 10.5907V10.7578C164.648 11.8461 163.866 12.775 162.805 12.8799C161.73 12.9771 160.746 12.1298 160.651 10.956ZM169.728 11.9238C169.391 11.9199 169.237 11.9199 168.906 11.9199L169.905 9.74337L170.811 7.76504L171.711 7.8622L172.184 9.74337L172.834 12.2697C172.533 12.2114 172.298 12.1609 172.012 12.1454L171.78 11.3525C171.186 11.2553 170.65 11.2242 170.099 11.2009L169.728 11.9238ZM174.57 12.7012C174.247 12.6001 174.009 12.5612 173.652 12.4524L174.31 10.1087L174.787 8.44132C175.477 8.62011 176.134 8.85331 176.787 9.07874C177.158 9.19923 177.36 9.63843 177.397 10.1087C177.422 10.75 177.118 11.4419 176.505 11.5857L176.743 13.4746C176.457 13.3502 176.244 13.257 175.925 13.1248L175.715 11.473L174.945 11.2242L174.57 12.7012ZM156.194 12.0909L155.97 11.6712C156.558 11.2786 157.189 10.9405 157.795 10.5984C158.51 10.1826 159.524 11.1892 159.45 12.0909C159.439 12.2503 159.395 12.3941 159.307 12.5418L160.772 13.6612C160.493 13.7972 160.287 13.9099 159.957 14.0615L158.672 13.0782L157.967 13.4746L158.72 14.7844C158.426 14.9788 158.25 15.0993 157.908 15.3091L156.194 12.0909ZM166.403 8.61234L166.759 12.056L167.618 11.9627L167.28 8.54238L168.583 8.45687L168.535 7.69119C167.078 7.7767 166.48 7.83888 165.041 8.06431L165.136 8.79501L166.403 8.61234ZM179.001 14.6523L179.871 12.8916L182.22 11.745C181.974 11.5585 181.706 11.4263 181.457 11.2553L179.838 12.0288L179.54 10.1826C179.203 10.0154 179.001 9.94159 178.648 9.7939L179.118 12.4796L178.245 14.217L179.001 14.6523ZM168.998 40.359C172.504 40.359 175.356 37.3701 175.356 33.6894C175.356 30.0087 172.504 27.0159 168.998 27.0042C165.496 27.0042 162.647 30.0087 162.647 33.6894C162.647 37.3701 165.496 40.359 168.998 40.359ZM168.998 39.7099C165.848 39.7099 163.271 36.9931 163.271 33.6894C163.271 30.3623 165.848 27.6611 168.998 27.6611C172.173 27.6611 174.724 30.3623 174.724 33.6894C174.724 37.0086 172.158 39.7099 168.998 39.7099ZM184.925 40.2851C185.19 40.4639 185.494 40.6816 185.77 40.5805C185.961 40.5222 186.122 40.3045 186.225 39.912C187.469 35.4889 187.469 31.7071 186.225 27.3346C186.148 27.0625 186.027 26.7788 185.81 26.6777C185.586 26.5922 185.311 26.6894 184.911 26.9731L176.769 32.7877C176.457 33.0092 176.295 33.3124 176.295 33.6233C176.295 33.9381 176.457 34.2413 176.769 34.4589L184.925 40.2851ZM183.13 21.7844C183.141 21.6056 183.035 21.3841 182.8 21.1392C179.775 17.7772 176.67 15.8999 172.412 14.835C172.173 14.7689 171.894 14.7106 171.711 14.8816C171.52 15.0448 171.465 15.3519 171.501 15.8183L172.206 26.1686C172.228 26.5611 172.397 26.8721 172.647 27.0276C172.918 27.1908 173.245 27.1597 173.583 26.9887L182.459 22.4918C182.745 22.3441 183.068 22.1886 183.13 21.8699C183.13 21.8505 183.141 21.8233 183.13 21.7844ZM154.909 21.9476C154.946 22.2586 155.284 22.4179 155.578 22.5656L164.442 27.0859C164.795 27.2646 165.122 27.2646 165.39 27.1169C165.639 26.9459 165.801 26.6467 165.823 26.2541L166.538 15.9232C166.579 15.4257 166.513 15.1303 166.34 14.9788C166.153 14.8077 165.874 14.8583 165.61 14.9088C161.359 15.9815 158.265 17.8666 155.214 21.2092C154.968 21.5045 154.851 21.7494 154.909 21.9476ZM153.129 27.0392C152.839 26.8449 152.531 26.6195 152.277 26.7361C152.072 26.8021 151.921 27.0276 151.815 27.3968C150.582 31.8354 150.582 35.6016 151.815 39.9858C151.899 40.2696 151.991 40.5533 152.241 40.6271C152.439 40.7165 152.74 40.6271 153.129 40.3434L161.264 34.525C161.565 34.3112 161.748 34.0081 161.748 33.7049C161.748 33.3745 161.565 33.083 161.264 32.8576L153.129 27.0392ZM155.038 45.5633C155.038 45.742 155.152 45.9636 155.365 46.1968C158.419 49.5666 161.51 51.4438 165.753 52.4933C166.025 52.5788 166.293 52.6215 166.48 52.4661C166.674 52.3145 166.726 52.0074 166.693 51.5177C166.693 51.5021 165.973 41.1674 165.973 41.1674C165.944 40.7748 165.801 40.4756 165.54 40.3201C165.276 40.1568 164.945 40.1568 164.593 40.324L155.735 44.852C155.427 45.0036 155.093 45.1746 155.045 45.4778C155.045 45.5011 155.038 45.5399 155.038 45.5633ZM171.685 52.3145C171.835 52.4388 172.081 52.4777 172.459 52.3767C176.696 51.3078 179.801 49.4228 182.829 46.088C183.009 45.8703 183.208 45.6449 183.149 45.3922C183.09 45.1513 182.899 44.9336 182.484 44.7315L173.605 40.2035C173.271 40.0364 172.94 40.0364 172.672 40.1879C172.412 40.359 172.25 40.6543 172.228 41.0625L171.509 51.3855C171.501 51.7237 171.465 52.1085 171.685 52.3145ZM152.949 14.112L155.578 17.1864C155.945 17.6023 156.348 17.5518 156.881 17.1126C160.203 14.3802 164.461 12.7595 168.998 12.7595C173.542 12.7595 177.804 14.3724 181.159 17.1126C181.681 17.5207 182.077 17.6023 182.459 17.1864L185.091 14.112C185.388 13.7739 185.388 13.3036 184.815 12.8022C180.41 9.19923 174.97 6.97215 168.991 6.97215C163.044 6.97215 157.527 9.19923 153.199 12.8178C152.63 13.3036 152.656 13.7739 152.949 14.112ZM192.194 42.38L188.405 41.0236C188.207 40.9459 187.69 40.9459 187.422 41.6455C184.364 49.3489 177.243 54.6193 168.998 54.6193C160.746 54.6193 153.496 49.2284 150.567 41.525C150.35 40.9458 149.818 40.9459 149.616 41.0236L145.85 42.38C145.442 42.5355 145.197 42.9164 145.413 43.4644C149.11 53.3794 158.309 60.3794 168.998 60.3794C179.687 60.3794 188.927 53.3328 192.638 43.4256C192.829 42.9047 192.597 42.5355 192.194 42.38ZM145.233 40.2579L149.01 39.1036C149.367 38.9947 149.657 38.6061 149.627 38.1202C148.273 30.7316 149.994 24.7383 154.12 19.9382C154.535 19.6273 154.583 18.9821 154.183 18.5468L151.437 15.6473C151.169 15.3247 150.684 15.3247 150.27 15.7717C145.006 21.5901 142.348 30.5178 144.297 39.6477C144.404 40.0869 144.734 40.4056 145.233 40.2579ZM187.814 15.7328C187.444 15.2547 186.831 15.3247 186.654 15.6589L183.916 18.5468C183.516 18.9821 183.553 19.6273 183.971 19.9382C188.101 24.7383 189.826 30.716 188.471 38.1202C188.442 38.6061 188.732 38.9947 189.092 39.1036L192.876 40.2579C193.379 40.4056 193.702 40.0869 193.809 39.6321C195.758 30.5178 193.089 21.559 187.814 15.7328ZM169.071 37.7199C167.005 37.7199 165.287 35.9126 165.287 33.7166C165.287 31.9714 166.362 30.444 167.959 29.9348C167.974 29.756 168.018 28.8465 168.018 28.8465H169.941C169.941 28.8465 169.985 29.6822 170.007 29.861C171.67 30.3002 172.882 31.8898 172.882 33.7166C172.882 35.9126 171.16 37.7199 169.071 37.7199Z" fill="#CF005D"/>
<path d="M50.2516 41.3928L50.3691 43.7793C50.3875 44.1368 50.1489 44.4555 49.8148 44.5255C48.8531 44.7121 47.5316 44.9375 46.702 44.9375C42.5356 44.9375 41.2656 43.2623 41.2656 37.7782V29.3985H39.6688C39.287 29.3985 38.9786 29.072 38.9786 28.6756V26.1959C38.9786 25.7956 39.287 25.4769 39.6688 25.4769H41.2656V22.5308C41.2656 22.1965 41.4821 21.905 41.7831 21.8273L44.5472 21.1238C44.7528 21.0694 44.9657 21.1199 45.1346 21.2559C45.2997 21.392 45.3989 21.5979 45.3989 21.8234V25.4769H49.6019C49.9873 25.4769 50.292 25.7956 50.292 26.1959V28.6756C50.292 29.072 49.9873 29.3985 49.6019 29.3985H45.3989V37.168C45.3989 39.8537 45.4906 40.7865 47.282 40.7865C47.9464 40.7865 48.9816 40.736 49.5358 40.7088C49.9066 40.701 50.237 40.9925 50.2516 41.3928ZM37.2093 34.8826C37.2093 41.8048 34.7058 44.8908 29.0895 44.8908C23.4475 44.8908 20.9294 41.8048 20.9294 34.8826C20.9294 28.0615 23.4475 25.0221 29.0895 25.0221C34.6288 25.0221 37.2093 28.1509 37.2093 34.8826ZM33.0063 34.8826C33.0063 30.6306 31.905 28.9788 29.0895 28.9788C26.1713 28.9788 25.1361 30.5257 25.1361 34.8826C25.1361 38.8354 25.7638 40.9731 29.0895 40.9731C32.3639 40.9731 33.0063 38.7421 33.0063 34.8826ZM129.32 41.3928L129.438 43.7793C129.456 44.1368 129.218 44.4555 128.88 44.5255C127.922 44.7121 126.6 44.9375 125.771 44.9375C121.604 44.9375 120.334 43.2623 120.334 37.7782V29.3985H118.734C118.356 29.3985 118.047 29.072 118.047 28.6756V26.1959C118.047 25.7956 118.356 25.4769 118.734 25.4769H120.334V22.5308C120.334 22.1965 120.551 21.905 120.856 21.8273L123.616 21.1238C123.822 21.0694 124.035 21.1199 124.203 21.2559C124.369 21.392 124.468 21.5979 124.468 21.8234V25.4769H128.671C129.056 25.4769 129.361 25.7956 129.361 26.1959V28.6756C129.361 29.072 129.056 29.3985 128.671 29.3985H124.468V37.168C124.468 39.8537 124.559 40.7865 126.351 40.7865C127.015 40.7865 128.05 40.736 128.605 40.7088C128.975 40.701 129.306 40.9925 129.32 41.3928ZM18.4112 43.4644C18.503 43.686 18.4846 43.9425 18.3598 44.1524C18.2313 44.3545 18.0184 44.4789 17.7798 44.4789H14.5752C14.3036 44.4789 14.0577 44.3078 13.9475 44.0474L9.84359 34.3424C7.79896 34.3268 6.02596 34.2141 5.06789 34.1442V43.7559C5.06789 44.1563 4.76688 44.4789 4.38512 44.4789H1.51456C1.13647 44.4789 0.828125 44.1563 0.828125 43.7559V19.4097C0.828125 19.0405 1.09242 18.7335 1.44115 18.6946C5.11561 18.2593 8.05958 18.2126 9.15348 18.2126C9.53157 18.2126 9.73346 18.2165 9.73346 18.2165C16.7887 18.2165 18.2717 22.5929 18.2717 26.262C18.2717 29.3247 16.8805 31.5362 14.0136 33.0326L18.4112 43.4644ZM9.71878 22.3947H8.20641C6.51785 22.3947 5.5561 22.5269 5.06789 22.6279V30.137C5.87546 30.1953 7.42821 30.2808 9.51689 30.2575C12.2112 30.2264 13.8815 28.7261 13.8815 26.3397C13.8815 24.4313 12.7912 22.3947 9.71878 22.3947ZM67.1153 31.4546V44.0513C67.1153 44.2612 67.0272 44.4594 66.8803 44.5993C66.7262 44.7354 66.5279 44.7976 66.3334 44.7665C64.9275 44.5605 64.2594 44.098 63.595 43.5616C63.5693 43.5772 60.4638 44.8908 57.6887 44.8908C54.3482 44.8908 52.4321 42.6793 52.4321 38.8043C52.4321 35.0264 54.1867 33.3513 58.4889 33.0131L62.9819 32.6361V31.4896C62.9819 30.0398 62.1597 29.2081 60.7318 29.2081C58.7642 29.2081 55.9561 29.4491 54.4584 29.589C54.2712 29.6123 54.084 29.5462 53.9408 29.418C53.8013 29.2897 53.7169 29.0992 53.7095 28.9049L53.6178 26.4952C53.6067 26.1298 53.8527 25.8111 54.1977 25.7567C55.5339 25.5313 58.867 25.0221 60.952 25.0221C65.1551 25.0221 67.1153 27.0665 67.1153 31.4546ZM58.9918 36.2469C57.3693 36.4101 56.5984 37.1874 56.5984 38.6877C56.5984 39.6088 56.8407 41.1674 58.4485 41.1674C60.361 41.1674 62.9526 40.4095 62.9819 40.4017V36.0253L58.9918 36.2469ZM98.2986 31.4546V44.0513C98.2986 44.2612 98.2105 44.4594 98.0637 44.5993C97.9095 44.7354 97.7113 44.7976 97.5167 44.7665C96.1145 44.5605 95.4464 44.098 94.782 43.5616C94.7526 43.5772 91.6471 44.8908 88.872 44.8908C85.5316 44.8908 83.6155 42.6793 83.6155 38.8043C83.6155 35.0264 85.3701 33.3513 89.6723 33.0131L94.1653 32.6361V31.4896C94.1653 30.0398 93.3467 29.2081 91.9151 29.2081C89.9476 29.2081 87.1394 29.4491 85.6417 29.589C85.4545 29.6123 85.2636 29.5462 85.1242 29.418C84.9847 29.2897 84.9002 29.0992 84.8892 28.9049L84.8011 26.4952C84.7864 26.1298 85.0361 25.8111 85.3774 25.7567C86.7173 25.5313 90.054 25.0221 92.1354 25.0221C96.3421 25.0221 98.2986 27.0665 98.2986 31.4546ZM90.1788 36.2469C88.5527 36.4101 87.7855 37.1874 87.7855 38.6877C87.7855 39.6088 88.0241 41.1674 89.6356 41.1674C91.5444 41.1674 94.1396 40.4095 94.1653 40.4017V36.0253L90.1788 36.2469ZM80.532 25.3331C78.7039 25.4458 76.9052 26.5418 75.7857 27.3774V26.1959C75.7857 25.7956 75.4773 25.4769 75.0992 25.4769H72.3388C71.957 25.4769 71.6487 25.7956 71.6487 26.1959V43.7559C71.6487 44.1563 71.957 44.4789 72.3388 44.4789H75.0992C75.4773 44.4789 75.7857 44.1563 75.7857 43.7559V31.6178C76.4097 31.0737 78.3369 29.5579 80.6348 29.3441C80.9872 29.3091 81.2588 28.9982 81.2588 28.6251V26.0521C81.2588 25.85 81.1817 25.6634 81.0422 25.5274C80.9064 25.3875 80.7155 25.3136 80.532 25.3331ZM115.548 41.0081L115.636 43.4178C115.65 43.7831 115.401 44.1019 115.059 44.1563C113.72 44.3817 111.587 44.8908 109.506 44.8908C103.864 44.8908 101.349 41.8515 101.349 35.0303C101.349 34.9798 101.349 34.9332 101.349 34.8826C101.349 28.0615 103.864 25.0221 109.506 25.0221C111.587 25.0221 113.72 25.5313 115.059 25.7567C115.401 25.8111 115.65 26.1298 115.636 26.4952L115.548 28.9049C115.54 29.0992 115.452 29.2897 115.316 29.418C115.173 29.5462 114.982 29.6123 114.795 29.589C113.297 29.4491 111.473 28.9788 109.506 28.9788C106.587 28.9788 105.552 30.5257 105.552 34.8826C105.552 35.0498 105.556 35.2091 105.556 35.3685C105.556 35.4618 105.556 35.5628 105.559 35.6522C105.567 35.7921 105.57 35.9282 105.578 36.0603C105.581 36.1847 105.589 36.3129 105.596 36.4295C105.6 36.4956 105.603 36.5578 105.611 36.6239C105.86 39.7682 106.973 40.9303 109.506 40.9303C111.473 40.9303 113.297 40.4639 114.795 40.324C114.982 40.3046 115.173 40.3629 115.316 40.495C115.452 40.6233 115.54 40.8137 115.548 41.0081Z" fill="#CF005D"/>
<path d="M11.1294 70.9804H5.66635L4.64013 74.0289H1.40051L6.69256 59.1991H10.1938L15.4456 74.0289H12.0852L11.1294 70.9804ZM10.2642 68.4249L8.41298 62.5896L6.50141 68.4249H10.2642Z" fill="#CF005D"/>
<path d="M25.1946 65.7085C24.041 65.7085 23.2663 66.0841 22.8705 66.8353C22.6492 67.2579 22.5385 67.9085 22.5385 68.7871V74.0289H19.651V63.0625H22.3876V64.974C22.8303 64.2429 23.216 63.7433 23.5446 63.475C24.0812 63.0256 24.7788 62.8009 25.6373 62.8009C25.691 62.8009 25.7346 62.8042 25.7681 62.8109C25.8083 62.8109 25.8922 62.8143 26.0196 62.821V65.7588C25.8385 65.7387 25.6775 65.7253 25.5367 65.7185C25.3958 65.7118 25.2818 65.7085 25.1946 65.7085Z" fill="#CF005D"/>
<path d="M30.6979 64.2497C31.4559 63.2838 32.7571 62.8009 34.6016 62.8009C35.8022 62.8009 36.8687 63.039 37.801 63.5152C38.7333 63.9914 39.1994 64.8902 39.1994 66.2115V71.242C39.1994 71.5908 39.2061 72.0133 39.2196 72.5097C39.2397 72.8853 39.2967 73.1402 39.3906 73.2743C39.4845 73.4085 39.6253 73.5191 39.8132 73.6063V74.0289H36.6943C36.6071 73.8075 36.5467 73.5996 36.5132 73.4051C36.4796 73.2106 36.4528 72.9892 36.4327 72.7411C36.0369 73.1703 35.5809 73.5359 35.0644 73.8377C34.4473 74.1932 33.7498 74.371 32.9717 74.371C31.979 74.371 31.1574 74.0892 30.5068 73.5258C29.8629 72.9557 29.5409 72.1508 29.5409 71.1112C29.5409 69.763 30.0608 68.7871 31.1004 68.1835C31.6705 67.8548 32.5089 67.6201 33.6156 67.4792L34.5915 67.3585C35.1214 67.2914 35.5004 67.2076 35.7284 67.107C36.1376 66.9326 36.3421 66.6609 36.3421 66.292C36.3421 65.8426 36.1845 65.5341 35.8693 65.3664C35.5607 65.192 35.1046 65.1048 34.501 65.1048C33.8235 65.1048 33.344 65.2725 33.0623 65.6079C32.861 65.856 32.7269 66.1914 32.6598 66.614H29.8931C29.9534 65.6548 30.2217 64.8667 30.6979 64.2497ZM32.8309 71.9563C33.0992 72.1777 33.4278 72.2883 33.8168 72.2883C34.4339 72.2883 35.0007 72.1072 35.5171 71.745C36.0403 71.3829 36.3119 70.7222 36.3321 69.763V68.6966C36.151 68.8106 35.9665 68.9045 35.7787 68.9783C35.5976 69.0454 35.3461 69.1091 35.0241 69.1694L34.3802 69.2902C33.7766 69.3975 33.344 69.5283 33.0824 69.6826C32.6397 69.9441 32.4184 70.3499 32.4184 70.8999C32.4184 71.3896 32.5559 71.7417 32.8309 71.9563Z" fill="#CF005D"/>
<path d="M54.311 59.2192V74.0289H51.5241V72.5097C51.1149 73.1603 50.6488 73.6331 50.1256 73.9283C49.6024 74.2234 48.9518 74.371 48.1738 74.371C46.8927 74.371 45.8128 73.8545 44.9342 72.8216C44.0622 71.7819 43.6262 70.4505 43.6262 68.8274C43.6262 66.956 44.0555 65.4838 44.914 64.4106C45.7793 63.3375 46.9329 62.8009 48.375 62.8009C49.039 62.8009 49.6293 62.9484 50.1457 63.2436C50.6622 63.532 51.0814 63.9344 51.4033 64.4509V59.2192H54.311ZM46.5842 68.6161C46.5842 69.6289 46.7854 70.4371 47.1878 71.0408C47.5835 71.6511 48.1872 71.9563 48.9988 71.9563C49.8104 71.9563 50.4274 71.6545 50.85 71.0508C51.2726 70.4472 51.4838 69.6658 51.4838 68.7066C51.4838 67.3652 51.1451 66.406 50.4677 65.8292C50.0518 65.4804 49.5689 65.3061 49.0189 65.3061C48.1805 65.3061 47.5634 65.6246 47.1677 66.2618C46.7787 66.8923 46.5842 67.6771 46.5842 68.6161Z" fill="#CF005D"/>
<path d="M78.5075 72.9222C77.4008 73.935 75.9856 74.4414 74.2618 74.4414C72.1289 74.4414 70.452 73.7572 69.2313 72.3889C68.0106 71.014 67.4002 69.1292 67.4002 66.7347C67.4002 64.1457 68.0944 62.1503 69.4828 60.7484C70.6902 59.5277 72.2261 58.9174 74.0907 58.9174C76.5859 58.9174 78.4102 59.7356 79.5639 61.3722C80.2011 62.2911 80.5432 63.2134 80.5901 64.139H77.4913C77.2901 63.428 77.0319 62.8914 76.7167 62.5292C76.1532 61.8853 75.3182 61.5634 74.2115 61.5634C73.0847 61.5634 72.1959 62.0195 71.5453 62.9317C70.8947 63.8372 70.5694 65.1216 70.5694 66.785C70.5694 68.4484 70.9115 69.696 71.5956 70.5277C72.2865 71.3527 73.1618 71.7652 74.2215 71.7652C75.3081 71.7652 76.1365 71.4097 76.7066 70.6987C77.0218 70.3164 77.2834 69.7429 77.4913 68.9783H80.5599C80.2916 70.5947 79.6075 71.9094 78.5075 72.9222Z" fill="#CF005D"/>
<path d="M94.6654 70.8094C94.5916 71.46 94.2529 72.1207 93.6492 72.7914C92.7102 73.8578 91.3956 74.3911 89.7053 74.3911C88.3102 74.3911 87.0794 73.9417 86.013 73.0429C84.9465 72.1441 84.4133 70.6819 84.4133 68.6563C84.4133 66.7582 84.8928 65.3027 85.852 64.2899C86.8178 63.2771 88.0687 62.7707 89.6047 62.7707C90.5169 62.7707 91.3385 62.9417 92.0696 63.2838C92.8007 63.6259 93.4044 64.1658 93.8806 64.9036C94.3099 65.5542 94.5882 66.3088 94.7157 67.1673C94.7894 67.6704 94.8196 68.3948 94.8062 69.3405H87.3008C87.341 70.4405 87.6864 71.2118 88.337 71.6545C88.7328 71.9295 89.209 72.067 89.7657 72.067C90.3559 72.067 90.8355 71.8993 91.2044 71.564C91.4056 71.3829 91.5834 71.1313 91.7376 70.8094H94.6654ZM91.8282 67.449C91.7812 66.6911 91.5498 66.1176 91.134 65.7286C90.7248 65.3329 90.2151 65.135 89.6047 65.135C88.9407 65.135 88.4242 65.3429 88.0553 65.7588C87.6931 66.1746 87.4651 66.7381 87.3712 67.449H91.8282Z" fill="#CF005D"/>
<path d="M104.344 71.9865V74.1295L102.986 74.1798C101.631 74.2267 100.705 73.992 100.209 73.4755C99.887 73.1469 99.726 72.6405 99.726 71.9563V65.2054H98.1967V63.1631H99.726V60.1045H102.563V63.1631H104.344V65.2054H102.563V71.0005C102.563 71.4499 102.62 71.7316 102.734 71.8457C102.848 71.953 103.197 72.0066 103.781 72.0066C103.868 72.0066 103.958 72.0066 104.052 72.0066C104.153 71.9999 104.25 71.9932 104.344 71.9865Z" fill="#CF005D"/>
<path d="M109.173 64.2497C109.931 63.2838 111.232 62.8009 113.077 62.8009C114.277 62.8009 115.344 63.039 116.276 63.5152C117.209 63.9914 117.675 64.8902 117.675 66.2115V71.242C117.675 71.5908 117.681 72.0133 117.695 72.5097C117.715 72.8853 117.772 73.1402 117.866 73.2743C117.96 73.4085 118.101 73.5191 118.288 73.6063V74.0289H115.17C115.082 73.8075 115.022 73.5996 114.988 73.4051C114.955 73.2106 114.928 72.9892 114.908 72.7411C114.512 73.1703 114.056 73.5359 113.54 73.8377C112.923 74.1932 112.225 74.371 111.447 74.371C110.454 74.371 109.633 74.0892 108.982 73.5258C108.338 72.9557 108.016 72.1508 108.016 71.1112C108.016 69.763 108.536 68.7871 109.576 68.1835C110.146 67.8548 110.984 67.6201 112.091 67.4792L113.067 67.3585C113.597 67.2914 113.976 67.2076 114.204 67.107C114.613 66.9326 114.817 66.6609 114.817 66.292C114.817 65.8426 114.66 65.5341 114.345 65.3664C114.036 65.192 113.58 65.1048 112.976 65.1048C112.299 65.1048 111.819 65.2725 111.538 65.6079C111.336 65.856 111.202 66.1914 111.135 66.614H108.368C108.429 65.6548 108.697 64.8667 109.173 64.2497ZM111.306 71.9563C111.574 72.1777 111.903 72.2883 112.292 72.2883C112.909 72.2883 113.476 72.1072 113.992 71.745C114.516 71.3829 114.787 70.7222 114.807 69.763V68.6966C114.626 68.8106 114.442 68.9045 114.254 68.9783C114.073 69.0454 113.821 69.1091 113.499 69.1694L112.856 69.2902C112.252 69.3975 111.819 69.5283 111.558 69.6826C111.115 69.9441 110.894 70.3499 110.894 70.8999C110.894 71.3896 111.031 71.7417 111.306 71.9563Z" fill="#CF005D"/>
<path d="M127.826 71.9865V74.1295L126.468 74.1798C125.113 74.2267 124.187 73.992 123.691 73.4755C123.369 73.1469 123.208 72.6405 123.208 71.9563V65.2054H121.679V63.1631H123.208V60.1045H126.045V63.1631H127.826V65.2054H126.045V71.0005C126.045 71.4499 126.102 71.7316 126.216 71.8457C126.33 71.953 126.679 72.0066 127.263 72.0066C127.35 72.0066 127.441 72.0066 127.534 72.0066C127.635 71.9999 127.732 71.9932 127.826 71.9865Z" fill="#CF005D"/>
<path d="M141.63 70.8094C141.556 71.46 141.217 72.1207 140.614 72.7914C139.675 73.8578 138.36 74.3911 136.67 74.3911C135.275 74.3911 134.044 73.9417 132.977 73.0429C131.911 72.1441 131.378 70.6819 131.378 68.6563C131.378 66.7582 131.857 65.3027 132.816 64.2899C133.782 63.2771 135.033 62.7707 136.569 62.7707C137.481 62.7707 138.303 62.9417 139.034 63.2838C139.765 63.6259 140.369 64.1658 140.845 64.9036C141.274 65.5542 141.553 66.3088 141.68 67.1673C141.754 67.6704 141.784 68.3948 141.771 69.3405H134.265C134.305 70.4405 134.651 71.2118 135.301 71.6545C135.697 71.9295 136.173 72.067 136.73 72.067C137.32 72.067 137.8 71.8993 138.169 71.564C138.37 71.3829 138.548 71.1313 138.702 70.8094H141.63ZM138.793 67.449C138.746 66.6911 138.514 66.1176 138.098 65.7286C137.689 65.3329 137.18 65.135 136.569 65.135C135.905 65.135 135.389 65.3429 135.02 65.7588C134.658 66.1746 134.43 66.7381 134.336 67.449H138.793Z" fill="#CF005D"/>
</svg>
